<?xml version="1.0" encoding="utf-8"?>
<!-- Created with Inkscape (http://www.inkscape.org/) -->
<svg width="512" height="512" version="1.2" viewBox="0 0 512 512" baseProfile="tiny-ps" xmlns="http://www.w3.org/2000/svg">
  <title>gsdvmeadows</title>
  <g stroke-width="4.1574">
    <path d="m2.5652 256v-251.69h506.87v503.38h-506.87z" fill="#f8faf7" />
    <path d="m205.11 485.13c-45.881-8.2701-82.075-27.674-119.24-63.925-48.789-47.59-70.736-98.208-70.736-163.15 0-64.973 21.96-115.6 70.736-163.08 44.477-43.297 92.218-64.773 147.65-66.42 28.145-0.83591 52.531 9.4117 78.422 32.955l17.37 15.795v171.87c0 146.43 0.88831 171.87 6.0012 171.87 3.3007 0 7.0221-3.2493 8.2698-7.2207 1.2477-3.9714 1.854-59.589 1.3472-123.59-1.0063-127.1-0.2596-131.55 20.264-120.73 6.0044 3.1652 15.468 9.909 21.03 14.986l10.113 9.2312v92.79c0 51.035 1.6798 93.813 3.7329 95.063 6.7712 4.122 34.846-31.385 50.032-63.278 13.553-28.463 15.082-35.381 16.635-75.254 1.2128-31.156-0.10891-50.018-4.5504-64.942-6.7667-22.737-2.911-24.367 8.0867-3.4191 18.037 34.356 23.149 96.395 11.582 140.56-8.3265 31.79-30.246 73.216-51.887 98.062-21.461 24.64-66.662 54.88-98.56 65.938-31.168 10.805-85.105 13.325-126.29 5.9008zm1.8005-114.64-1.1762-50.545-33.314-1.2201c-18.322-0.67107-35.759-3.2193-38.748-5.6628-6.8518-5.6011-7.1557-41.348-0.40794-47.994 3.4569-3.405 24.389-4.9513 67.024-4.9513h61.997v-178.62l-26.619 2.4484c-130.59 12.012-202.79 151.7-135.55 262.25 21.663 35.612 72.437 74.124 98.414 74.646 9.4994 0.19104 9.5474-0.0978 8.378-50.352z" fill="#d9e6a3" />
    <path d="m200.68 480.84c-44.435-9.5117-78.681-28.535-114.17-63.421-37.498-36.86-55.846-70.17-65.506-118.93-22.942-115.8 52.492-232.47 170.26-263.34 26.452-6.9338 65.14-7.9989 68.968-1.8988 1.4455 2.3037 8.6257 6.7191 15.956 9.812 7.3303 3.0929 20.748 12.034 29.816 19.868l16.488 14.245-0.91155 162.65c-1.0326 184.24 0.74609 199.38 21.661 184.32 6.5445-4.7136 7.6209-18.089 10.303-128.02l2.9951-122.76 31.418 21.046v92.351c0 50.793 1.1442 95.288 2.5427 98.877 4.0654 10.435 11.305 7.7284 29.446-11.009 25.461-26.298 35.138-42.027 48.559-78.924l12.19-33.512-2.5838 25.713c-9.1563 91.119-79.781 170.8-171.36 193.34-21.126 5.1995-30.755 5.9246-35.981 2.7096-4.3431-2.6716-9.4492-2.9478-13.045-0.7056-8.0157 4.998-25.978 4.2388-57.044-2.4113zm8.7219-68.563c3.3706-16.6 2.6446-72.749-1.1136-86.132-2.7342-9.7368-4.8836-10.431-38.331-12.378l-35.434-2.063v-45.387h125.67l4.189 152.67 3.1248-53.639c3.819-65.557 4.0684-206.54 0.4463-252.36l-2.6622-33.682-23.494 2.2075c-68.639 6.4495-127.18 45.645-154.78 103.63-10.042 21.101-11.144 28.108-11.144 70.866 0 44.85 0.73652 48.982 13.441 75.399 16.245 33.781 48.659 67.012 80.587 82.618 29.843 14.588 36.238 14.306 39.497-1.7421z" fill="#a0c859" />
    <path d="m200.68 481.01c-44.787-9.8775-78.803-28.823-114.17-63.59-37.498-36.86-55.846-70.17-65.506-118.93-22.942-115.8 52.492-232.47 170.26-263.34 30.388-7.9654 64.267-7.9169 71.023 0.10173 2.8682 3.404 7.0691 6.1891 9.3354 6.1891 4.809 0 36.296 23.198 44.373 32.692 6.8317 8.0303 2.9523 55.685-5.6068 68.872-4.3651 6.7256-4.5261 9.8479-0.70162 13.611 3.5332 3.4766 4.963 31.866 4.963 98.551 0 51.517-0.65785 101.09-1.4619 110.17-1.8788 21.21 6.8864 62.747 13.792 65.357 10.022 3.7879 25.339-7.7243 30.385-22.837 3.634-10.883 3.9428-25.049 1.1217-51.461-4.3587-40.808-5.293-151.08-1.4013-165.39 3.204-11.776 6.1069-11.654 19.788 0.83451 10.928 9.9755 11.083 10.892 10.976 64.986-0.0594 30.177-1.9506 73.435-4.2026 96.129-3.6477 36.759-3.3276 41.818 2.934 46.369 5.8011 4.2158 10.285 3.3151 25.675-5.1576 10.256-5.6459 19.288-10.265 20.072-10.265 5.5143 0-19.85 32.377-38.556 49.217-32.472 29.232-71.169 47.058-105.92 48.792-15.214 0.75933-35.202 2.1554-44.417 3.1024-9.2158 0.94697-28.457-0.85872-42.758-4.0127zm83.823-121.12c5.9709-1.1238 6.5315-2.6342 2.6761-7.2099-6.6366-7.8765-13.239-96.155-9.8457-131.65 1.5134-15.832 5.3307-35.985 8.4828-44.785 5.0096-13.986 4.9495-15.704-0.47768-13.653-7.6079 2.8756-9.7681-4.8006-13.772-48.938l-2.9945-33.009-25.134 1.4301c-67.229 3.8252-128.35 44.101-156.42 103.06-10.042 21.101-11.144 28.108-11.144 70.866 0 44.85 0.73652 48.982 13.441 75.399 16.245 33.781 48.659 67.012 80.587 82.618 29.843 14.588 36.238 14.306 39.497-1.7421 3.3706-16.6 2.6446-72.749-1.1136-86.132-2.7342-9.7368-4.8836-10.431-38.331-12.378l-35.434-2.063v-45.387h125.67l2.4135 80.459c1.3274 44.252 2.9962 81.387 3.7084 82.522s3.3962-13.699 5.9645-32.963c3.7746-28.313 6.1173-35.299 12.223-36.448z" fill="#a7cc36" />
    <path d="m200.68 481.01c-44.787-9.8775-78.803-28.823-114.17-63.59-37.498-36.86-55.846-70.17-65.506-118.93-22.942-115.8 52.492-232.47 170.26-263.34 30.388-7.9654 64.267-7.9169 71.023 0.10173 2.8682 3.404 6.9822 6.1891 9.1422 6.1891 5.4656 0 42.463 28.203 46.675 35.58 1.9003 3.328 2.1377 18.168 0.52752 32.977-3.1136 28.638-14.682 48.037-31.179 52.286-10.126 2.6082-11.667-2.1099-15.888-48.637l-2.9945-33.009-25.134 1.4301c-67.229 3.8252-128.35 44.101-156.42 103.06-10.042 21.101-11.144 28.108-11.144 70.866 0 44.85 0.73652 48.982 13.441 75.399 16.245 33.781 48.659 67.012 80.587 82.618 29.843 14.588 36.238 14.306 39.497-1.7421 3.3706-16.6 2.6446-72.749-1.1136-86.132-2.7342-9.7368-4.8836-10.431-38.331-12.378l-35.434-2.063v-45.387h125.67l2.0945 79.094c1.152 43.502 3.3025 80.279 4.7789 81.727 1.4764 1.4482 4.0413-12.465 5.6996-30.917 3.2969-36.685 7.419-41.928 24.366-30.991 11.607 7.4909 17.813 20.668 21.764 46.208 1.4645 9.467 5.0795 18.126 8.0334 19.243 9.8779 3.7336 25.37-7.6334 30.151-22.121 5.4242-16.44 13.635-19.604 27.559-10.618 8.9911 5.8027 11.15 5.5032 27.904-3.8707 9.9878-5.5879 18.846-10.16 19.685-10.16 5.5988 0-19.58 32.225-38.456 49.217-32.472 29.232-71.169 47.058-105.92 48.792-15.214 0.75933-35.202 2.1554-44.417 3.1024-9.2158 0.94697-28.457-0.85872-42.758-4.0127z" fill="#32a1ce" />
    <path d="m201.54 478.2c-58.39-11.151-125.23-60.933-152.04-113.24-26.863-52.417-33.413-113.33-17.605-163.73 7.674-24.472 20.932-44.827 20.932-32.136 0 2.6811 1.9928 3.6617 4.4283 2.179s9.1898-3.2106 15.009-3.8398c8.9949-0.97256 10.199 0.16826 8.0348 7.6099-17.663 60.722-19.301 91.072-7.0135 129.96 10.942 34.627 25.063 56.789 52.435 82.287 25.072 23.356 63.47 43.433 78.931 41.27 9.296-1.3001 9.452-2.2754 9.452-59.087v-57.765l-75.402-4.1261v-37.135l56.552 1.4808c31.103 0.81446 57.007 1.8823 57.564 2.373 0.55706 0.49068 1.4996 47.171 2.0945 103.73l1.0816 102.84-16.756 0.6641c-9.2158 0.36515-26.181-1.1358-37.701-3.3357zm68.851 4.2803c-4.5519-27.385 1.9149-113.19 9.118-120.98 5.1748-5.5968 24.373 5.7201 30.758 18.132 2.9602 5.7536 6.6599 19.116 8.2217 29.695s5.3065 20.166 8.3218 21.306c9.9784 3.7716 25.46-7.5237 30.262-22.079 5.4242-16.44 13.635-19.604 27.559-10.618 8.9911 5.8027 11.15 5.5032 27.904-3.8707 9.9878-5.5879 18.846-10.16 19.685-10.16 5.5988 0-19.58 32.225-38.456 49.217-28.978 26.087-68.54 45.416-99.367 48.55-13.057 1.3273-23.86 1.6894-24.007 0.80454zm6.7748-326.92c-5.3128-25.764-6.9263-43.353-6.9263-75.504 0-19.498 0.90759-36.344 2.0169-37.437 2.6094-2.5702 41.317 26.479 45.842 34.403 6.5632 11.494-1.6075 58.976-12.303 71.496-13.35 15.627-26.207 18.789-28.629 7.0411z" fill="#61b84e" />
    <path d="m201.54 478.2c-58.39-11.151-125.23-60.933-152.04-113.24-26.863-52.417-33.413-113.33-17.605-163.73 7.674-24.472 20.932-44.827 20.932-32.136 0 2.6811 1.9928 3.6617 4.4283 2.179s9.1898-3.2106 15.009-3.8398c8.9949-0.97256 10.199 0.16826 8.0348 7.6099-17.663 60.722-19.301 91.072-7.0135 129.96 10.942 34.627 25.063 56.789 52.435 82.287 25.072 23.356 63.47 43.433 78.931 41.27 9.296-1.3001 9.452-2.2754 9.452-59.087v-57.765l-75.402-4.1261v-37.135l56.552 1.4808c31.103 0.81446 57.007 1.8823 57.564 2.373 0.55706 0.49068 1.4996 47.171 2.0945 103.73l1.0816 102.84-16.756 0.6641c-9.2158 0.36515-26.181-1.1358-37.701-3.3357zm73.221 0.55558c-3.8859-2.3655-4.4908-10.11-2.2878-29.289 1.6472-14.34 3.8975-27.512 5.0008-29.27 1.1033-1.7583 11.269 1.4264 22.59 7.0772s26.773 10.3 34.338 10.33c7.5644 0.033 18.07 1.1953 23.346 2.5874 9.2728 2.4467 9.343 2.8028 2.1044 10.681-4.1186 4.4827-12.583 10.745-18.81 13.917-16.716 8.5143-60.189 17.674-66.281 13.966zm2.1149-379.65c-1.4605-2.3277-3.7206-14.396-5.0223-26.82-2.8399-27.103 1.6951-28.895 25.079-9.9087 18.905 15.349 19.923 26.177 3.257 34.665-14.504 7.3879-19.685 7.8463-23.314 2.0629z" fill="#1fac4f" />
    <path d="m201.54 478.2c-58.39-11.151-125.23-60.933-152.04-113.24-26.863-52.417-33.413-113.33-17.605-163.73 7.674-24.472 20.932-44.827 20.932-32.136 0 2.6811 1.9928 3.6617 4.4283 2.179s9.1898-3.2106 15.009-3.8398c8.9949-0.97256 10.199 0.16826 8.0348 7.6099-17.663 60.722-19.301 91.072-7.0135 129.96 10.942 34.627 25.063 56.789 52.435 82.287 25.072 23.356 63.47 43.433 78.931 41.27 9.296-1.3001 9.452-2.2754 9.452-59.087v-57.765l-75.402-4.1261v-37.135l56.552 1.4808c31.103 0.81446 57.007 1.8823 57.564 2.373 0.55706 0.49068 1.4996 47.171 2.0945 103.73l1.0816 102.84-16.756 0.6641c-9.2158 0.36515-26.181-1.1358-37.701-3.3357z" fill="#1659a4" />
  </g>
</svg>